<?xml version="1.0" encoding="UTF-8"?>
<!-- Created with Grafika (https://www.grafika.cc/) -->
<svg xmlns="http://www.w3.org/2000/svg" xmlns:svg="http://www.w3.org/2000/svg" xmlns:xlink="http://www.w3.org/1999/xlink" width="2048" height="2048" viewBox="0 0 22 22" preserveAspectRatio="xMidYMid meet" id="icon-sun.svg">
	<defs>
		<mask id="mask_1" mask-type="alpha">
			<path d="M0 0 L22 0 L22 22 L0 22 L0 0 Z" id="a" style="fill:white;stroke:white;stroke-linecap:butt;stroke-linejoin:miter;stroke-miterlimit:4;stroke-width:1;" />
		</mask>
	</defs>
	<g id="Group">
		<g mask="url(#mask_1)">
			<path d="M11 1.83 L11 3.67 M11 18.33 L11 20.17 M3.67 11 L1.83 11 M5.79 5.79 L4.49 4.49 M16.21 5.79 L17.51 4.49 M5.79 16.22 L4.49 17.51 M16.21 16.22 L17.51 17.51 M20.17 11 L18.33 11 M15.58 11 C15.58 13.53 13.53 15.58 11 15.58 C8.47 15.58 6.42 13.53 6.42 11 C6.42 8.47 8.47 6.42 11 6.42 C13.53 6.42 15.58 8.47 15.58 11 Z" id="Path" style="fill:#315F1E;fill-opacity:0;stroke:#fff;stroke-linecap:round;stroke-linejoin:round;stroke-width:2;" />
		</g>
	</g>
</svg>