<svg width="42" height="31" viewBox="0 0 42 31" fill="none" xmlns="http://www.w3.org/2000/svg">
<path d="M27.8046 27.6615H36.0196M36.0196 27.6615L34.5451 26.7077V28.3769L36.0196 27.6615Z" stroke="#3A5A40" stroke-width="2" stroke-linecap="round"/>
<path d="M32.987 2.86154H38.3366L27.8046 16.6923V9.96382L32.987 2.86154Z" fill="#3A5A40" fill-opacity="0.2"/>
<path d="M7.7168 2.86154H12.6384L2.94897 16.2154V9.71892L7.7168 2.86154Z" fill="#3A5A40" fill-opacity="0.2"/>
<path d="M27.8046 25.5154V3.86154C27.8046 3.30925 28.2523 2.86154 28.8046 2.86154H37.9685C38.5208 2.86154 38.9685 3.30925 38.9685 3.86154V27.6615" stroke="#3A5A40" stroke-width="2" stroke-linecap="round"/>
<rect x="1" y="1" width="39.7068" height="29" rx="1" fill="#3A5A40" fill-opacity="0.02" stroke="#3A5A40" stroke-width="2"/>
<path d="M24.8556 14.5462V20.0308L19.1683 28.1385H15.1661L24.8556 14.5462Z" fill="#3A5A40" fill-opacity="0.2"/>
<rect x="14.981" y="3.88461" width="9.63844" height="23.2308" fill="#3A5A40" fill-opacity="0.02" stroke="#3A5A40" stroke-width="3"/>
<mask id="path-8-inside-1_20_14" fill="white">
<path d="M2.10641 3.38461C2.10641 2.83233 2.55412 2.38461 3.10641 2.38461H11.6384C12.1907 2.38461 12.6384 2.83233 12.6384 3.38461V27.6154C12.6384 28.1677 12.1907 28.6154 11.6384 28.6154H3.10641C2.55412 28.6154 2.10641 28.1677 2.10641 27.6154V3.38461Z"/>
</mask>
<path d="M2.10641 3.38461C2.10641 2.83233 2.55412 2.38461 3.10641 2.38461H11.6384C12.1907 2.38461 12.6384 2.83233 12.6384 3.38461V27.6154C12.6384 28.1677 12.1907 28.6154 11.6384 28.6154H3.10641C2.55412 28.6154 2.10641 28.1677 2.10641 27.6154V3.38461Z" fill="#3A5A40" fill-opacity="0.02"/>
<path d="M0.106407 3.38461C0.106407 2.28004 1.00184 1.38461 2.10641 1.38461H11.6384C12.743 1.38461 13.6384 2.28004 13.6384 3.38461H11.6384H4.10641H0.106407ZM13.6384 27.6154C13.6384 28.7199 12.743 29.6154 11.6384 29.6154H2.10641C1.00184 29.6154 0.106407 28.7199 0.106407 27.6154H4.10641H11.6384H13.6384ZM2.10641 29.6154C1.00184 29.6154 0.106407 28.7199 0.106407 27.6154V3.38461C0.106407 2.28004 1.00184 1.38461 2.10641 1.38461L4.10641 3.38461V27.6154L2.10641 29.6154ZM11.6384 1.38461C12.743 1.38461 13.6384 2.28004 13.6384 3.38461V27.6154C13.6384 28.7199 12.743 29.6154 11.6384 29.6154V27.6154V3.38461V1.38461Z" fill="#3A5A40" mask="url(#path-8-inside-1_20_14)"/>
</svg>
